<svg width="16" height="16" viewBox="0 0 16 16" fill="none" xmlns="http://www.w3.org/2000/svg">
<path d="M13.887 5.9737L11.6868 7.23095L11.2874 7.00177V5.16828C11.2866 5.08345 11.2639 5.00026 11.2215 4.92681C11.179 4.85337 11.1182 4.79217 11.0451 4.74919L9.50628 3.85209V3.43956L11.6999 2.17576L13.8936 3.43956L13.887 5.9737ZM10.6129 6.62852L9.50628 5.9737V4.66407L10.5933 5.31889L10.6129 6.62852ZM10.6129 8.31795L10.2659 8.5144L8.23593 7.33572C8.16206 7.29383 8.07858 7.2718 7.99365 7.2718C7.90872 7.2718 7.82524 7.29383 7.75137 7.33572L5.74108 8.4882L5.39403 8.29176V7.87267L7.35848 6.75294C7.43162 6.70996 7.49238 6.64876 7.53484 6.57532C7.5773 6.50187 7.60001 6.41868 7.60076 6.33385V4.03544L8.0002 3.80626L8.39964 4.03544V6.33385C8.40039 6.41868 8.4231 6.50187 8.46556 6.57532C8.50802 6.64876 8.56878 6.70996 8.64192 6.75294L10.6064 7.87267L10.6129 8.31795ZM6.88046 9.14957L8.01985 8.49475L9.15923 9.14957L8.01985 9.80439L6.88046 9.14957ZM10.2135 9.75855V12.2927L8.01985 13.5565L5.80001 12.2665V9.73236L6.14707 9.53591L7.75137 10.4592C7.82524 10.5011 7.90872 10.5231 7.99365 10.5231C8.07858 10.5231 8.16206 10.5011 8.23593 10.4592L9.84024 9.53591L10.2135 9.75855ZM6.48757 4.67062V5.98025L5.40057 6.63507V5.32543L6.48757 4.67062ZM4.26774 7.23095L2.10029 5.9737V3.43956L4.26774 2.17576L6.48757 3.43956V3.85864L4.92256 4.74919C4.84942 4.79217 4.78866 4.85337 4.7462 4.92681C4.70374 5.00026 4.68102 5.08345 4.68028 5.16828V7.00177L4.26774 7.23095ZM14.7448 2.64723L11.9291 1.04293C11.8585 1.00565 11.7798 0.986171 11.6999 0.986171C11.62 0.986171 11.5414 1.00565 11.4707 1.04293L8.65502 2.66033C8.58144 2.70281 8.52032 2.76389 8.4778 2.83745C8.43527 2.911 8.41283 2.99445 8.41274 3.07941V3.21692L8.25558 3.12525C8.1817 3.08335 8.09823 3.06132 8.0133 3.06132C7.92837 3.06132 7.84489 3.08335 7.77101 3.12525L7.61386 3.21692V3.07941C7.61311 2.99458 7.5904 2.91139 7.54794 2.83794C7.50548 2.7645 7.44472 2.70331 7.37158 2.66033L4.53622 1.04293C4.46234 1.00103 4.37886 0.979004 4.29393 0.979004C4.209 0.979004 4.12553 1.00103 4.05165 1.04293L1.23593 2.66033C1.16235 2.70281 1.10124 2.76389 1.05871 2.83745C1.01619 2.911 0.993751 2.99445 0.993652 3.07941V6.3535C0.993751 6.43846 1.01619 6.52191 1.05871 6.59546C1.10124 6.66902 1.16235 6.7301 1.23593 6.77258L4.05165 8.38998C4.12553 8.43188 4.209 8.4539 4.29393 8.4539C4.37886 8.4539 4.46234 8.43188 4.53622 8.38998L4.69337 8.29831V8.43582C4.69601 8.51606 4.71829 8.59443 4.75824 8.66407C4.7982 8.7337 4.85462 8.79248 4.92256 8.83526L5.02078 8.89419L4.92256 8.95312C4.84942 8.9961 4.78866 9.0573 4.7462 9.13074C4.70374 9.20418 4.68102 9.28738 4.68028 9.37221V12.6463C4.68102 12.7311 4.70374 12.8143 4.7462 12.8878C4.78866 12.9612 4.84942 13.0224 4.92256 13.0654L7.73827 14.6828C7.81215 14.7247 7.89563 14.7467 7.98056 14.7467C8.06549 14.7467 8.14896 14.7247 8.22284 14.6828L11.0386 13.0654C11.1117 13.0224 11.1725 12.9612 11.2149 12.8878C11.2574 12.8143 11.2801 12.7311 11.2808 12.6463V9.37221C11.2801 9.28738 11.2574 9.20418 11.2149 9.13074C11.1725 9.0573 11.1117 8.9961 11.0386 8.95312L10.9403 8.89419L11.0386 8.83526C11.1117 8.79228 11.1725 8.73108 11.2149 8.65764C11.2574 8.5842 11.2801 8.501 11.2808 8.41617V8.27866L11.438 8.37034C11.5119 8.41223 11.5953 8.43426 11.6803 8.43426C11.7652 8.43426 11.8487 8.41223 11.9226 8.37034L14.7448 6.75294C14.8192 6.71078 14.8813 6.64994 14.9249 6.57644C14.9685 6.50294 14.9922 6.41932 14.9937 6.33385V3.05976C14.9895 2.97753 14.9645 2.8977 14.921 2.82781C14.8774 2.75792 14.8168 2.70028 14.7448 2.66033V2.64723Z" fill="#6D7D95"/>
<path d="M13.887 5.9737L11.6868 7.23095L11.2874 7.00177V5.16828C11.2866 5.08345 11.2639 5.00026 11.2215 4.92681C11.179 4.85337 11.1182 4.79217 11.0451 4.74919L9.50628 3.85209V3.43956L11.6999 2.17576L13.8936 3.43956L13.887 5.9737ZM10.6129 6.62852L9.50628 5.9737V4.66407L10.5933 5.31889L10.6129 6.62852ZM10.6129 8.31795L10.2659 8.5144L8.23593 7.33572C8.16206 7.29383 8.07858 7.2718 7.99365 7.2718C7.90872 7.2718 7.82524 7.29383 7.75137 7.33572L5.74108 8.4882L5.39403 8.29176V7.87267L7.35848 6.75294C7.43162 6.70996 7.49238 6.64876 7.53484 6.57532C7.5773 6.50187 7.60001 6.41868 7.60076 6.33385V4.03544L8.0002 3.80626L8.39964 4.03544V6.33385C8.40039 6.41868 8.4231 6.50187 8.46556 6.57532C8.50802 6.64876 8.56878 6.70996 8.64192 6.75294L10.6064 7.87267L10.6129 8.31795ZM6.88046 9.14957L8.01985 8.49475L9.15923 9.14957L8.01985 9.80439L6.88046 9.14957ZM10.2135 9.75855V12.2927L8.01985 13.5565L5.80001 12.2665V9.73236L6.14707 9.53591L7.75137 10.4592C7.82524 10.5011 7.90872 10.5231 7.99365 10.5231C8.07858 10.5231 8.16206 10.5011 8.23593 10.4592L9.84024 9.53591L10.2135 9.75855ZM6.48757 4.67062V5.98025L5.40057 6.63507V5.32543L6.48757 4.67062ZM4.26774 7.23095L2.10029 5.9737V3.43956L4.26774 2.17576L6.48757 3.43956V3.85864L4.92256 4.74919C4.84942 4.79217 4.78866 4.85337 4.7462 4.92681C4.70374 5.00026 4.68102 5.08345 4.68028 5.16828V7.00177L4.26774 7.23095ZM14.7448 2.64723L11.9291 1.04293C11.8585 1.00565 11.7798 0.986171 11.6999 0.986171C11.62 0.986171 11.5414 1.00565 11.4707 1.04293L8.65502 2.66033C8.58144 2.70281 8.52032 2.76389 8.4778 2.83745C8.43527 2.911 8.41283 2.99445 8.41274 3.07941V3.21692L8.25558 3.12525C8.1817 3.08335 8.09823 3.06132 8.0133 3.06132C7.92837 3.06132 7.84489 3.08335 7.77101 3.12525L7.61386 3.21692V3.07941C7.61311 2.99458 7.5904 2.91139 7.54794 2.83794C7.50548 2.7645 7.44472 2.70331 7.37158 2.66033L4.53622 1.04293C4.46234 1.00103 4.37886 0.979004 4.29393 0.979004C4.209 0.979004 4.12553 1.00103 4.05165 1.04293L1.23593 2.66033C1.16235 2.70281 1.10124 2.76389 1.05871 2.83745C1.01619 2.911 0.993751 2.99445 0.993652 3.07941V6.3535C0.993751 6.43846 1.01619 6.52191 1.05871 6.59546C1.10124 6.66902 1.16235 6.7301 1.23593 6.77258L4.05165 8.38998C4.12553 8.43188 4.209 8.4539 4.29393 8.4539C4.37886 8.4539 4.46234 8.43188 4.53622 8.38998L4.69337 8.29831V8.43582C4.69601 8.51606 4.71829 8.59443 4.75824 8.66407C4.7982 8.7337 4.85462 8.79248 4.92256 8.83526L5.02078 8.89419L4.92256 8.95312C4.84942 8.9961 4.78866 9.0573 4.7462 9.13074C4.70374 9.20418 4.68102 9.28738 4.68028 9.37221V12.6463C4.68102 12.7311 4.70374 12.8143 4.7462 12.8878C4.78866 12.9612 4.84942 13.0224 4.92256 13.0654L7.73827 14.6828C7.81215 14.7247 7.89563 14.7467 7.98056 14.7467C8.06549 14.7467 8.14896 14.7247 8.22284 14.6828L11.0386 13.0654C11.1117 13.0224 11.1725 12.9612 11.2149 12.8878C11.2574 12.8143 11.2801 12.7311 11.2808 12.6463V9.37221C11.2801 9.28738 11.2574 9.20418 11.2149 9.13074C11.1725 9.0573 11.1117 8.9961 11.0386 8.95312L10.9403 8.89419L11.0386 8.83526C11.1117 8.79228 11.1725 8.73108 11.2149 8.65764C11.2574 8.5842 11.2801 8.501 11.2808 8.41617V8.27866L11.438 8.37034C11.5119 8.41223 11.5953 8.43426 11.6803 8.43426C11.7652 8.43426 11.8487 8.41223 11.9226 8.37034L14.7448 6.75294C14.8192 6.71078 14.8813 6.64994 14.9249 6.57644C14.9685 6.50294 14.9922 6.41932 14.9937 6.33385V3.05976C14.9895 2.97753 14.9645 2.8977 14.921 2.82781C14.8774 2.75792 14.8168 2.70028 14.7448 2.66033V2.64723Z" fill="black" fill-opacity="0.5"/>
</svg>
