<svg width="18" height="18" viewBox="0 0 18 18" fill="none" xmlns="http://www.w3.org/2000/svg">
<path fill-rule="evenodd" clip-rule="evenodd" d="M16.87 5.69496C17.03 5.69496 17.18 5.75496 17.3 5.85496C17.37 5.92496 17.42 6.00496 17.45 6.08496C17.49 6.17496 17.5 6.26496 17.5 6.36496V11.615C17.5 11.705 17.48 11.785 17.45 11.865C17.42 11.945 17.37 12.015 17.31 12.085C17.25 12.145 17.18 12.195 17.1 12.225C17.02 12.255 16.93 12.275 16.85 12.275C16.72 12.275 16.6 12.235 16.5 12.165L14.46 10.865V14.225C14.46 14.535 14.34 14.835 14.12 15.065C13.9 15.295 13.6 15.415 13.29 15.415H1.68C1.37 15.415 1.07 15.285 0.85 15.065C0.62 14.845 0.5 14.545 0.5 14.235V3.76496C0.5 3.45496 0.62 3.15496 0.84 2.92496C1.06 2.71496 1.36 2.58496 1.68 2.58496H13.27C13.43 2.58496 13.58 2.61496 13.73 2.67496C13.88 2.73496 14.01 2.82496 14.12 2.93496C14.23 3.04496 14.32 3.17496 14.38 3.32496C14.44 3.47496 14.47 3.62496 14.47 3.78496V6.89496L16.56 5.78496C16.66 5.73496 16.76 5.70496 16.87 5.70496V5.69496ZM10 9.95496C10.67 9.57496 10.67 8.60496 10 8.22496L6.25 6.05496C5.58 5.67496 4.75 6.15496 4.75 6.92496V11.255C4.75 12.025 5.58 12.505 6.25 12.125L10 9.95496Z" fill="#6D7D95"/>
<path fill-rule="evenodd" clip-rule="evenodd" d="M16.87 5.69496C17.03 5.69496 17.18 5.75496 17.3 5.85496C17.37 5.92496 17.42 6.00496 17.45 6.08496C17.49 6.17496 17.5 6.26496 17.5 6.36496V11.615C17.5 11.705 17.48 11.785 17.45 11.865C17.42 11.945 17.37 12.015 17.31 12.085C17.25 12.145 17.18 12.195 17.1 12.225C17.02 12.255 16.93 12.275 16.85 12.275C16.72 12.275 16.6 12.235 16.5 12.165L14.46 10.865V14.225C14.46 14.535 14.34 14.835 14.12 15.065C13.9 15.295 13.6 15.415 13.29 15.415H1.68C1.37 15.415 1.07 15.285 0.85 15.065C0.62 14.845 0.5 14.545 0.5 14.235V3.76496C0.5 3.45496 0.62 3.15496 0.84 2.92496C1.06 2.71496 1.36 2.58496 1.68 2.58496H13.27C13.43 2.58496 13.58 2.61496 13.73 2.67496C13.88 2.73496 14.01 2.82496 14.12 2.93496C14.23 3.04496 14.32 3.17496 14.38 3.32496C14.44 3.47496 14.47 3.62496 14.47 3.78496V6.89496L16.56 5.78496C16.66 5.73496 16.76 5.70496 16.87 5.70496V5.69496ZM10 9.95496C10.67 9.57496 10.67 8.60496 10 8.22496L6.25 6.05496C5.58 5.67496 4.75 6.15496 4.75 6.92496V11.255C4.75 12.025 5.58 12.505 6.25 12.125L10 9.95496Z" fill="black" fill-opacity="0.5"/>
</svg>
