<svg width="18" height="18" viewBox="0 0 18 18" fill="currentColor" xmlns="http://www.w3.org/2000/svg">
<path d="M2.55359 12.7797C2.25814 12.7797 1.97807 12.7237 1.71322 12.6116C1.44837 12.4997 1.21918 12.3469 1.02565 12.1533C0.832112 11.9598 0.679318 11.7306 0.567263 11.4657C0.455207 11.2009 0.39917 10.9208 0.39917 10.6254C0.39917 10.33 0.455207 10.0524 0.567263 9.79274C0.67932 9.53296 0.832114 9.30632 1.02565 9.11279C1.21918 8.91927 1.44837 8.76648 1.71322 8.65443C1.97807 8.54238 2.25815 8.48634 2.55359 8.48634C2.61469 8.48634 2.67073 8.48896 2.72169 8.49404C2.77257 8.4991 2.82352 8.50164 2.87448 8.50164L5.85398 4.89582C5.80302 4.79398 5.76988 4.68193 5.75458 4.55974C5.73938 4.43745 5.73168 4.31018 5.73168 4.17777C5.73168 3.88233 5.78772 3.60227 5.89978 3.33743C6.01183 3.07259 6.16463 2.84341 6.35816 2.64989C6.55169 2.45636 6.78088 2.30357 7.04573 2.19152C7.31059 2.07947 7.59073 2.02344 7.8861 2.02344C8.18148 2.02344 8.46162 2.07947 8.72647 2.19152C8.99133 2.30357 9.22052 2.45636 9.41405 2.64989C9.60758 2.84341 9.76038 3.07259 9.87243 3.33743C9.98449 3.60227 10.0405 3.88241 10.0405 4.17777C10.0405 4.42225 10.0023 4.65395 9.92593 4.87292C9.84953 5.09196 9.74508 5.29817 9.61264 5.49177L12.195 11.2671L13.677 8.62393C13.565 8.45076 13.4733 8.25977 13.402 8.05097C13.3307 7.84215 13.295 7.62057 13.295 7.38632C13.295 7.09089 13.3511 6.81083 13.4631 6.54599C13.5752 6.28115 13.728 6.05196 13.9215 5.85844C14.115 5.66491 14.3442 5.51213 14.6091 5.40008C14.8739 5.28802 15.1541 5.23199 15.4494 5.23199C15.7448 5.23199 16.025 5.28802 16.2898 5.40008C16.5547 5.51213 16.7864 5.66491 16.985 5.85844C17.1837 6.05196 17.339 6.28115 17.4511 6.54599C17.5631 6.81083 17.6192 7.09096 17.6192 7.38632C17.6192 7.6919 17.5631 7.9771 17.4511 8.24195C17.339 8.50672 17.1837 8.73852 16.985 8.9371C16.7864 9.13569 16.5547 9.29109 16.2898 9.40307C16.0249 9.51514 15.7448 9.57115 15.4494 9.57115H15.0828L13.6312 12.2144C13.8553 12.4181 14.0336 12.6575 14.166 12.9325C14.2984 13.2076 14.3646 13.508 14.3646 13.8339C14.3646 14.1294 14.3086 14.4095 14.1965 14.6743C14.0845 14.9391 13.9291 15.1708 13.7305 15.3695C13.5319 15.5681 13.3027 15.7234 13.0429 15.8355C12.7831 15.9475 12.5005 16.0036 12.195 16.0036C11.8894 16.0036 11.6067 15.9475 11.3469 15.8355C11.0872 15.7234 10.8605 15.5681 10.667 15.3695C10.4734 15.1708 10.3206 14.9391 10.2086 14.6743C10.0966 14.4095 10.0405 14.1294 10.0405 13.8339C10.0405 13.508 10.1042 13.2076 10.2315 12.9325C10.3588 12.6575 10.5346 12.4181 10.7586 12.2144L8.1306 6.3321C8.02869 6.35246 7.94721 6.3626 7.88611 6.3626C7.7231 6.3626 7.56776 6.34224 7.42012 6.30151C7.27239 6.26077 7.13228 6.20981 6.99994 6.14872L4.38713 9.44896C4.48897 9.62211 4.57043 9.80804 4.63162 10.0066C4.69272 10.2052 4.72322 10.4115 4.72322 10.6254C4.72322 10.9208 4.6672 11.2009 4.55522 11.4657C4.44315 11.7306 4.28783 11.9598 4.08914 12.1533C3.89055 12.3469 3.66136 12.4996 3.40157 12.6116C3.14187 12.7237 2.85918 12.7797 2.55359 12.7797Z" fill="currentColor"/>
<path d="M2.55359 12.7797C2.25814 12.7797 1.97807 12.7237 1.71322 12.6116C1.44837 12.4997 1.21918 12.3469 1.02565 12.1533C0.832112 11.9598 0.679318 11.7306 0.567263 11.4657C0.455207 11.2009 0.39917 10.9208 0.39917 10.6254C0.39917 10.33 0.455207 10.0524 0.567263 9.79274C0.67932 9.53296 0.832114 9.30632 1.02565 9.11279C1.21918 8.91927 1.44837 8.76648 1.71322 8.65443C1.97807 8.54238 2.25815 8.48634 2.55359 8.48634C2.61469 8.48634 2.67073 8.48896 2.72169 8.49404C2.77257 8.4991 2.82352 8.50164 2.87448 8.50164L5.85398 4.89582C5.80302 4.79398 5.76988 4.68193 5.75458 4.55974C5.73938 4.43745 5.73168 4.31018 5.73168 4.17777C5.73168 3.88233 5.78772 3.60227 5.89978 3.33743C6.01183 3.07259 6.16463 2.84341 6.35816 2.64989C6.55169 2.45636 6.78088 2.30357 7.04573 2.19152C7.31059 2.07947 7.59073 2.02344 7.8861 2.02344C8.18148 2.02344 8.46162 2.07947 8.72647 2.19152C8.99133 2.30357 9.22052 2.45636 9.41405 2.64989C9.60758 2.84341 9.76038 3.07259 9.87243 3.33743C9.98449 3.60227 10.0405 3.88241 10.0405 4.17777C10.0405 4.42225 10.0023 4.65395 9.92593 4.87292C9.84953 5.09196 9.74508 5.29817 9.61264 5.49177L12.195 11.2671L13.677 8.62393C13.565 8.45076 13.4733 8.25977 13.402 8.05097C13.3307 7.84215 13.295 7.62057 13.295 7.38632C13.295 7.09089 13.3511 6.81083 13.4631 6.54599C13.5752 6.28115 13.728 6.05196 13.9215 5.85844C14.115 5.66491 14.3442 5.51213 14.6091 5.40008C14.8739 5.28802 15.1541 5.23199 15.4494 5.23199C15.7448 5.23199 16.025 5.28802 16.2898 5.40008C16.5547 5.51213 16.7864 5.66491 16.985 5.85844C17.1837 6.05196 17.339 6.28115 17.4511 6.54599C17.5631 6.81083 17.6192 7.09096 17.6192 7.38632C17.6192 7.6919 17.5631 7.9771 17.4511 8.24195C17.339 8.50672 17.1837 8.73852 16.985 8.9371C16.7864 9.13569 16.5547 9.29109 16.2898 9.40307C16.0249 9.51514 15.7448 9.57115 15.4494 9.57115H15.0828L13.6312 12.2144C13.8553 12.4181 14.0336 12.6575 14.166 12.9325C14.2984 13.2076 14.3646 13.508 14.3646 13.8339C14.3646 14.1294 14.3086 14.4095 14.1965 14.6743C14.0845 14.9391 13.9291 15.1708 13.7305 15.3695C13.5319 15.5681 13.3027 15.7234 13.0429 15.8355C12.7831 15.9475 12.5005 16.0036 12.195 16.0036C11.8894 16.0036 11.6067 15.9475 11.3469 15.8355C11.0872 15.7234 10.8605 15.5681 10.667 15.3695C10.4734 15.1708 10.3206 14.9391 10.2086 14.6743C10.0966 14.4095 10.0405 14.1294 10.0405 13.8339C10.0405 13.508 10.1042 13.2076 10.2315 12.9325C10.3588 12.6575 10.5346 12.4181 10.7586 12.2144L8.1306 6.3321C8.02869 6.35246 7.94721 6.3626 7.88611 6.3626C7.7231 6.3626 7.56776 6.34224 7.42012 6.30151C7.27239 6.26077 7.13228 6.20981 6.99994 6.14872L4.38713 9.44896C4.48897 9.62211 4.57043 9.80804 4.63162 10.0066C4.69272 10.2052 4.72322 10.4115 4.72322 10.6254C4.72322 10.9208 4.6672 11.2009 4.55522 11.4657C4.44315 11.7306 4.28783 11.9598 4.08914 12.1533C3.89055 12.3469 3.66136 12.4996 3.40157 12.6116C3.14187 12.7237 2.85918 12.7797 2.55359 12.7797Z" fill="currentColor" fill-opacity="0.5"/>
</svg>
