<svg width="18" height="18" viewBox="0 0 18 18" fill="none" xmlns="http://www.w3.org/2000/svg">
<path d="M15.6634 10.2116H14.4517C14.4517 10.3707 14.4204 10.5283 14.3595 10.6753C14.2986 10.8223 14.2094 10.9559 14.0969 11.0684C13.9844 11.1809 13.8508 11.2701 13.7038 11.331C13.5568 11.3919 13.3992 11.4233 13.2401 11.4233C13.081 11.4233 12.9235 11.3919 12.7765 11.331C12.6295 11.2701 12.4959 11.1809 12.3834 11.0684C12.2709 10.9559 12.1816 10.8223 12.1207 10.6753C12.0598 10.5283 12.0285 10.3707 12.0285 10.2116H2.33662C2.17751 10.2116 2.01996 10.1803 1.87296 10.1194C1.72596 10.0585 1.59239 9.96926 1.47988 9.85675C1.36737 9.74424 1.27812 9.61067 1.21723 9.46367C1.15634 9.31667 1.125 9.15911 1.125 9C1.125 8.84089 1.15634 8.68333 1.21723 8.53633C1.27812 8.38933 1.36737 8.25576 1.47988 8.14325C1.59239 8.03074 1.72596 7.94149 1.87296 7.8806C2.01996 7.81971 2.17751 7.78837 2.33662 7.78837H12.0285C12.0285 7.62926 12.0598 7.47171 12.1207 7.32471C12.1816 7.17771 12.2709 7.04414 12.3834 6.93163C12.4959 6.81912 12.6295 6.72987 12.7765 6.66898C12.9235 6.60809 13.081 6.57675 13.2401 6.57675C13.3992 6.57675 13.5568 6.60809 13.7038 6.66898C13.8508 6.72987 13.9844 6.81912 14.0969 6.93163C14.2094 7.04414 14.2986 7.17771 14.3595 7.32471C14.4204 7.47171 14.4517 7.62926 14.4517 7.78837H15.6634C15.8225 7.78837 15.98 7.81971 16.127 7.8806C16.274 7.94149 16.4076 8.03074 16.5201 8.14325C16.6326 8.25576 16.7219 8.38933 16.7828 8.53633C16.8437 8.68333 16.875 8.84089 16.875 9C16.875 9.15911 16.8437 9.31667 16.7828 9.46367C16.7219 9.61067 16.6326 9.74424 16.5201 9.85675C16.4076 9.96926 16.274 10.0585 16.127 10.1194C15.98 10.1803 15.8225 10.2116 15.6634 10.2116ZM15.6634 4.75987H5.9715C5.9715 5.08122 5.84385 5.3894 5.61662 5.61662C5.3894 5.84385 5.08122 5.9715 4.75987 5.9715C4.43853 5.9715 4.13035 5.84385 3.90313 5.61662C3.6759 5.3894 3.54825 5.08122 3.54825 4.75987H2.33662C2.01528 4.75987 1.7071 4.63222 1.47988 4.405C1.25265 4.17777 1.125 3.86959 1.125 3.54825C1.125 3.22691 1.25265 2.91873 1.47988 2.6915C1.7071 2.46428 2.01528 2.33662 2.33662 2.33662H3.54825C3.54825 2.01528 3.6759 1.7071 3.90313 1.47988C4.13035 1.25265 4.43853 1.125 4.75987 1.125C5.08122 1.125 5.3894 1.25265 5.61662 1.47988C5.84385 1.7071 5.9715 2.01528 5.9715 2.33662H15.6634C15.9847 2.33662 16.2929 2.46428 16.5201 2.6915C16.7473 2.91873 16.875 3.22691 16.875 3.54825C16.875 3.86959 16.7473 4.17777 16.5201 4.405C16.2929 4.63222 15.9847 4.75987 15.6634 4.75987ZM2.33662 13.2401H3.54825C3.54825 12.9188 3.6759 12.6106 3.90313 12.3834C4.13035 12.1562 4.43853 12.0285 4.75987 12.0285C5.08122 12.0285 5.3894 12.1562 5.61662 12.3834C5.84385 12.6106 5.9715 12.9188 5.9715 13.2401H15.6634C15.9847 13.2401 16.2929 13.3678 16.5201 13.595C16.7473 13.8222 16.875 14.1304 16.875 14.4517C16.875 14.7731 16.7473 15.0813 16.5201 15.3085C16.2929 15.5357 15.9847 15.6634 15.6634 15.6634H5.9715C5.9715 15.9847 5.84385 16.2929 5.61662 16.5201C5.3894 16.7473 5.08122 16.875 4.75987 16.875C4.43853 16.875 4.13035 16.7473 3.90313 16.5201C3.6759 16.2929 3.54825 15.9847 3.54825 15.6634H2.33662C2.01528 15.6634 1.7071 15.5357 1.47988 15.3085C1.25265 15.0813 1.125 14.7731 1.125 14.4517C1.125 14.1304 1.25265 13.8222 1.47988 13.595C1.7071 13.3678 2.01528 13.2401 2.33662 13.2401Z" fill="#6D7D95"/>
<path d="M15.6634 10.2116H14.4517C14.4517 10.3707 14.4204 10.5283 14.3595 10.6753C14.2986 10.8223 14.2094 10.9559 14.0969 11.0684C13.9844 11.1809 13.8508 11.2701 13.7038 11.331C13.5568 11.3919 13.3992 11.4233 13.2401 11.4233C13.081 11.4233 12.9235 11.3919 12.7765 11.331C12.6295 11.2701 12.4959 11.1809 12.3834 11.0684C12.2709 10.9559 12.1816 10.8223 12.1207 10.6753C12.0598 10.5283 12.0285 10.3707 12.0285 10.2116H2.33662C2.17751 10.2116 2.01996 10.1803 1.87296 10.1194C1.72596 10.0585 1.59239 9.96926 1.47988 9.85675C1.36737 9.74424 1.27812 9.61067 1.21723 9.46367C1.15634 9.31667 1.125 9.15911 1.125 9C1.125 8.84089 1.15634 8.68333 1.21723 8.53633C1.27812 8.38933 1.36737 8.25576 1.47988 8.14325C1.59239 8.03074 1.72596 7.94149 1.87296 7.8806C2.01996 7.81971 2.17751 7.78837 2.33662 7.78837H12.0285C12.0285 7.62926 12.0598 7.47171 12.1207 7.32471C12.1816 7.17771 12.2709 7.04414 12.3834 6.93163C12.4959 6.81912 12.6295 6.72987 12.7765 6.66898C12.9235 6.60809 13.081 6.57675 13.2401 6.57675C13.3992 6.57675 13.5568 6.60809 13.7038 6.66898C13.8508 6.72987 13.9844 6.81912 14.0969 6.93163C14.2094 7.04414 14.2986 7.17771 14.3595 7.32471C14.4204 7.47171 14.4517 7.62926 14.4517 7.78837H15.6634C15.8225 7.78837 15.98 7.81971 16.127 7.8806C16.274 7.94149 16.4076 8.03074 16.5201 8.14325C16.6326 8.25576 16.7219 8.38933 16.7828 8.53633C16.8437 8.68333 16.875 8.84089 16.875 9C16.875 9.15911 16.8437 9.31667 16.7828 9.46367C16.7219 9.61067 16.6326 9.74424 16.5201 9.85675C16.4076 9.96926 16.274 10.0585 16.127 10.1194C15.98 10.1803 15.8225 10.2116 15.6634 10.2116ZM15.6634 4.75987H5.9715C5.9715 5.08122 5.84385 5.3894 5.61662 5.61662C5.3894 5.84385 5.08122 5.9715 4.75987 5.9715C4.43853 5.9715 4.13035 5.84385 3.90313 5.61662C3.6759 5.3894 3.54825 5.08122 3.54825 4.75987H2.33662C2.01528 4.75987 1.7071 4.63222 1.47988 4.405C1.25265 4.17777 1.125 3.86959 1.125 3.54825C1.125 3.22691 1.25265 2.91873 1.47988 2.6915C1.7071 2.46428 2.01528 2.33662 2.33662 2.33662H3.54825C3.54825 2.01528 3.6759 1.7071 3.90313 1.47988C4.13035 1.25265 4.43853 1.125 4.75987 1.125C5.08122 1.125 5.3894 1.25265 5.61662 1.47988C5.84385 1.7071 5.9715 2.01528 5.9715 2.33662H15.6634C15.9847 2.33662 16.2929 2.46428 16.5201 2.6915C16.7473 2.91873 16.875 3.22691 16.875 3.54825C16.875 3.86959 16.7473 4.17777 16.5201 4.405C16.2929 4.63222 15.9847 4.75987 15.6634 4.75987ZM2.33662 13.2401H3.54825C3.54825 12.9188 3.6759 12.6106 3.90313 12.3834C4.13035 12.1562 4.43853 12.0285 4.75987 12.0285C5.08122 12.0285 5.3894 12.1562 5.61662 12.3834C5.84385 12.6106 5.9715 12.9188 5.9715 13.2401H15.6634C15.9847 13.2401 16.2929 13.3678 16.5201 13.595C16.7473 13.8222 16.875 14.1304 16.875 14.4517C16.875 14.7731 16.7473 15.0813 16.5201 15.3085C16.2929 15.5357 15.9847 15.6634 15.6634 15.6634H5.9715C5.9715 15.9847 5.84385 16.2929 5.61662 16.5201C5.3894 16.7473 5.08122 16.875 4.75987 16.875C4.43853 16.875 4.13035 16.7473 3.90313 16.5201C3.6759 16.2929 3.54825 15.9847 3.54825 15.6634H2.33662C2.01528 15.6634 1.7071 15.5357 1.47988 15.3085C1.25265 15.0813 1.125 14.7731 1.125 14.4517C1.125 14.1304 1.25265 13.8222 1.47988 13.595C1.7071 13.3678 2.01528 13.2401 2.33662 13.2401Z" fill="black" fill-opacity="0.5"/>
</svg>
