<svg width="16" height="16" viewBox="0 0 16 16" fill="none" xmlns="http://www.w3.org/2000/svg">
<path d="M12.6836 8.41446C13.3527 8.38537 13.8909 7.83264 13.8909 7.15628V6.74901C13.8909 6.05082 13.3236 5.48355 12.6254 5.48355H9.46176V2.83628C9.46176 2.02901 8.79994 1.36719 7.99267 1.36719C7.1854 1.36719 6.52358 2.02901 6.52358 2.83628V5.48355H3.3454C2.64721 5.48355 2.07994 6.05082 2.07994 6.74901V7.15628C2.07994 7.83991 2.6254 8.39991 3.30903 8.41446L2.08721 14.0363C2.05812 14.1817 2.08721 14.3345 2.18176 14.4508C2.27631 14.5672 2.41449 14.6326 2.56721 14.6326H13.4181C13.5636 14.6326 13.709 14.5672 13.8036 14.4508C13.8981 14.3345 13.9345 14.1817 13.8981 14.0363L12.6763 8.41446H12.6836ZM7.51994 2.83628C7.51996 2.70706 7.57131 2.58314 7.66269 2.49178C7.75407 2.40042 7.878 2.34909 8.00721 2.34909C8.13643 2.34909 8.26036 2.40042 8.35174 2.49178C8.44312 2.58314 8.49446 2.70706 8.49449 2.83628V5.48355H7.52721V2.83628H7.51994ZM3.06903 7.15628V6.74901C3.06903 6.59628 3.19267 6.46537 3.35267 6.46537H12.6399C12.7927 6.46537 12.9236 6.58901 12.9236 6.74901V7.15628C12.9236 7.30901 12.7999 7.43991 12.6399 7.43991H3.3454C3.30815 7.43991 3.27127 7.43258 3.23685 7.41832C3.20244 7.40407 3.17117 7.38318 3.14483 7.35684C3.1185 7.3305 3.0976 7.29923 3.08335 7.26482C3.0691 7.23041 3.06176 7.19353 3.06176 7.15628H3.06903ZM7.25085 13.6508H5.95631L6.61812 10.6108C6.63176 10.5478 6.63278 10.4826 6.62113 10.4192C6.60947 10.3557 6.58537 10.2952 6.55021 10.2411C6.51506 10.1871 6.46954 10.1405 6.41629 10.1041C6.36303 10.0676 6.3031 10.0421 6.23994 10.029C6.17689 10.0154 6.11176 10.0143 6.04831 10.026C5.98487 10.0377 5.92435 10.0618 5.87026 10.0969C5.81618 10.1321 5.76958 10.1776 5.73317 10.2308C5.69676 10.2841 5.67126 10.344 5.65812 10.4072L4.95267 13.6581H3.19267L4.32721 8.42901H11.6872L12.8218 13.6581H7.25085V13.6508Z" fill="#6D7D95"/>
<path d="M12.6836 8.41446C13.3527 8.38537 13.8909 7.83264 13.8909 7.15628V6.74901C13.8909 6.05082 13.3236 5.48355 12.6254 5.48355H9.46176V2.83628C9.46176 2.02901 8.79994 1.36719 7.99267 1.36719C7.1854 1.36719 6.52358 2.02901 6.52358 2.83628V5.48355H3.3454C2.64721 5.48355 2.07994 6.05082 2.07994 6.74901V7.15628C2.07994 7.83991 2.6254 8.39991 3.30903 8.41446L2.08721 14.0363C2.05812 14.1817 2.08721 14.3345 2.18176 14.4508C2.27631 14.5672 2.41449 14.6326 2.56721 14.6326H13.4181C13.5636 14.6326 13.709 14.5672 13.8036 14.4508C13.8981 14.3345 13.9345 14.1817 13.8981 14.0363L12.6763 8.41446H12.6836ZM7.51994 2.83628C7.51996 2.70706 7.57131 2.58314 7.66269 2.49178C7.75407 2.40042 7.878 2.34909 8.00721 2.34909C8.13643 2.34909 8.26036 2.40042 8.35174 2.49178C8.44312 2.58314 8.49446 2.70706 8.49449 2.83628V5.48355H7.52721V2.83628H7.51994ZM3.06903 7.15628V6.74901C3.06903 6.59628 3.19267 6.46537 3.35267 6.46537H12.6399C12.7927 6.46537 12.9236 6.58901 12.9236 6.74901V7.15628C12.9236 7.30901 12.7999 7.43991 12.6399 7.43991H3.3454C3.30815 7.43991 3.27127 7.43258 3.23685 7.41832C3.20244 7.40407 3.17117 7.38318 3.14483 7.35684C3.1185 7.3305 3.0976 7.29923 3.08335 7.26482C3.0691 7.23041 3.06176 7.19353 3.06176 7.15628H3.06903ZM7.25085 13.6508H5.95631L6.61812 10.6108C6.63176 10.5478 6.63278 10.4826 6.62113 10.4192C6.60947 10.3557 6.58537 10.2952 6.55021 10.2411C6.51506 10.1871 6.46954 10.1405 6.41629 10.1041C6.36303 10.0676 6.3031 10.0421 6.23994 10.029C6.17689 10.0154 6.11176 10.0143 6.04831 10.026C5.98487 10.0377 5.92435 10.0618 5.87026 10.0969C5.81618 10.1321 5.76958 10.1776 5.73317 10.2308C5.69676 10.2841 5.67126 10.344 5.65812 10.4072L4.95267 13.6581H3.19267L4.32721 8.42901H11.6872L12.8218 13.6581H7.25085V13.6508Z" fill="black" fill-opacity="0.5"/>
</svg>
