<svg width="16" height="16" viewBox="0 0 16 16" fill="none" xmlns="http://www.w3.org/2000/svg">
<g clip-path="url(#clip0_979_1599)">
<path d="M7.2792 9.09963L8.50846 16.0699H0.889328C0.653593 16.0699 0.427513 15.9763 0.260823 15.8096C0.0941337 15.6429 0.000488281 15.4168 0.000488281 15.1811V10.3849L7.2792 9.10052V9.09963ZM15.1108 0.0716896C15.3465 0.0716896 15.5726 0.165335 15.7393 0.332024C15.906 0.498714 15.9996 0.724794 15.9996 0.960529V15.182C15.9996 15.4177 15.906 15.6438 15.7393 15.8105C15.5726 15.9772 15.3465 16.0708 15.1108 16.0708L10.3137 16.0699L7.49252 0.0708008H15.1108V0.0716896ZM5.68728 0.0708008L6.97077 7.34862L0.000488281 8.57877V0.960529C0.000488281 0.724794 0.0941337 0.498714 0.260823 0.332024C0.427513 0.165335 0.653593 0.0716896 0.889328 0.0716896L5.68728 0.0708008Z" fill="#6D7D95"/>
<path d="M7.2792 9.09963L8.50846 16.0699H0.889328C0.653593 16.0699 0.427513 15.9763 0.260823 15.8096C0.0941337 15.6429 0.000488281 15.4168 0.000488281 15.1811V10.3849L7.2792 9.10052V9.09963ZM15.1108 0.0716896C15.3465 0.0716896 15.5726 0.165335 15.7393 0.332024C15.906 0.498714 15.9996 0.724794 15.9996 0.960529V15.182C15.9996 15.4177 15.906 15.6438 15.7393 15.8105C15.5726 15.9772 15.3465 16.0708 15.1108 16.0708L10.3137 16.0699L7.49252 0.0708008H15.1108V0.0716896ZM5.68728 0.0708008L6.97077 7.34862L0.000488281 8.57877V0.960529C0.000488281 0.724794 0.0941337 0.498714 0.260823 0.332024C0.427513 0.165335 0.653593 0.0716896 0.889328 0.0716896L5.68728 0.0708008Z" fill="black" fill-opacity="0.5"/>
</g>
<defs>
<clipPath id="clip0_979_1599">
<rect width="16" height="16" fill="white"/>
</clipPath>
</defs>
</svg>
