<svg width="16" height="16" viewBox="0 0 16 16" fill="none" xmlns="http://www.w3.org/2000/svg">
<path d="M2.275 0C1.575 0 1 0.575 1 1.275V14.725C1 15.425 1.575 16 2.275 16H13.725C14.425 16 15 15.425 15 14.725V5.075L10.275 0H2.275Z" fill="#45B058"/>
<path d="M5.85005 13.4749C5.80005 13.4749 5.75005 13.4499 5.72505 13.4249L4.80005 12.1749L3.85005 13.4249C3.82505 13.4499 3.77505 13.4749 3.72505 13.4749C3.62505 13.4749 3.55005 13.3999 3.55005 13.2999C3.55005 13.2749 3.55005 13.2249 3.57505 13.1999L4.55005 11.9249L3.65005 10.6999C3.62505 10.6749 3.60005 10.6499 3.60005 10.5999C3.60005 10.5249 3.67505 10.4249 3.77505 10.4249C3.85005 10.4249 3.90005 10.4499 3.92505 10.4999L4.80005 11.6499L5.65005 10.4999C5.67505 10.4499 5.72505 10.4249 5.77505 10.4249C5.87505 10.4249 5.97505 10.4999 5.97505 10.5999C5.97505 10.6499 5.95005 10.6749 5.95005 10.6999L5.02505 11.8999L6.00005 13.1999C6.02505 13.2249 6.05005 13.2749 6.05005 13.2999C6.05005 13.3999 5.95005 13.4749 5.85005 13.4749ZM8.35005 13.4499H7.00005C6.85005 13.4499 6.72505 13.3249 6.72505 13.1749V10.5999C6.72505 10.4999 6.80005 10.4249 6.92505 10.4249C7.02505 10.4249 7.10005 10.4999 7.10005 10.5999V13.1249H8.35005C8.45005 13.1249 8.52505 13.1999 8.52505 13.2749C8.52505 13.3749 8.45005 13.4499 8.35005 13.4499ZM10.1 13.4999C9.65005 13.4999 9.30005 13.3499 9.05005 13.1249C9.00005 13.0999 9.00005 13.0499 9.00005 12.9999C9.00005 12.8999 9.05005 12.7999 9.17505 12.7999C9.20005 12.7999 9.25005 12.8249 9.27505 12.8499C9.47505 13.0249 9.77505 13.1749 10.125 13.1749C10.65 13.1749 10.825 12.8749 10.825 12.6499C10.825 11.8749 9.05005 12.2999 9.05005 11.2499C9.05005 10.7499 9.47505 10.3999 10.075 10.3999C10.45 10.3999 10.8 10.5249 11.025 10.7249C11.075 10.7499 11.1 10.7999 11.1 10.8499C11.1 10.9499 11.025 11.0499 10.925 11.0499C10.9 11.0499 10.85 11.0249 10.825 10.9999C10.6 10.8249 10.325 10.7499 10.05 10.7499C9.67505 10.7499 9.42505 10.9249 9.42505 11.2249C9.42505 11.8999 11.2 11.4999 11.2 12.6249C11.2 13.0499 10.9 13.4999 10.1 13.4999Z" fill="white"/>
<path d="M14.9999 5.0999V5.3499H11.7999C11.7999 5.3499 10.1999 5.0249 10.2499 3.6499C10.2499 3.6499 10.2999 5.0999 11.7499 5.0999H14.9999Z" fill="#349C42"/>
<path opacity="0.5" d="M10.25 0V3.65C10.25 4.05 10.55 5.1 11.8 5.1H15L10.25 0Z" fill="white"/>
</svg>
