<svg width="16" height="16" viewBox="0 0 16 16" fill="none" xmlns="http://www.w3.org/2000/svg">
<path d="M14.5436 14.1299H0.669995C0.299468 14.1299 0 13.8636 0 13.5341V3.80529C0 3.47579 0.299468 3.20947 0.669995 3.20947H14.5436C14.9141 3.20947 15.2136 3.47579 15.2136 3.80529V13.5341C15.2136 13.8621 14.9125 14.1299 14.5436 14.1299Z" fill="#FFE9B4"/>
<path d="M7.61532 6.08876H0V2.67073C0 2.29979 0.299809 2 0.670745 2H5.88256C6.17899 2 6.43982 2.19309 6.52451 2.47764L7.61532 6.08876Z" fill="#FFB02C"/>
<path d="M14.5436 14.1298H0.669995C0.299468 14.1298 0 13.8303 0 13.4598V4.79947C0 4.4289 0.299468 4.12939 0.669995 4.12939H14.5436C14.9141 4.12939 15.2136 4.4289 15.2136 4.79947V13.4598C15.2136 13.8286 14.9125 14.1298 14.5436 14.1298Z" fill="#FFCA28"/>
</svg>
