<svg width="18" height="18" viewBox="0 0 18 18" fill="none" xmlns="http://www.w3.org/2000/svg">
<path d="M10.2783 2.25837L16.0484 6.39987C16.3275 6.60019 16.5549 6.86409 16.7118 7.16974C16.8687 7.47538 16.9505 7.81399 16.9505 8.15754V14.8361C16.9505 16.0312 15.9817 17 14.7866 17H11.8359V13.8525C11.8359 12.5489 10.7789 11.4919 9.47527 11.4919C8.17162 11.4919 7.11466 12.5489 7.11466 13.8525V17H4.16389C2.96883 17 2 16.0312 2 14.8361V8.15774C2.00001 7.81415 2.08185 7.47551 2.23872 7.16982C2.3956 6.86414 2.62301 6.60021 2.90215 6.39987L8.67227 2.25837C8.90632 2.09037 9.18717 2 9.47527 2C9.76338 2 10.0442 2.09037 10.2783 2.25837Z" fill="url(#paint0_linear_1067_1366)"/>
<defs>
<linearGradient id="paint0_linear_1067_1366" x1="16.9505" y1="17" x2="1.95063" y2="2.04954" gradientUnits="userSpaceOnUse">
<stop stop-color="#4171EE"/>
<stop offset="1" stop-color="#84A6FF"/>
</linearGradient>
</defs>
</svg>
