<svg width="16" height="16" viewBox="0 0 16 16" fill="none" xmlns="http://www.w3.org/2000/svg">
<path d="M2.10783 13.8922C0.37189 12.1563 1.69845 8.17345 4.93595 4.93595C8.17345 1.69845 12.1563 0.370328 13.8922 2.10783C15.6281 3.84533 14.3016 7.82658 11.0641 11.0641C7.82658 14.3016 3.84377 15.6297 2.10783 13.8922ZM2.57814 13.4219C3.96564 14.8094 7.58127 13.6047 10.5922 10.5938C13.6031 7.58283 14.8094 3.96564 13.4219 2.57814C12.0344 1.19064 8.41877 2.39533 5.40783 5.40627C2.39689 8.4172 1.19064 12.0344 2.57814 13.4219ZM9.33283 7.9672C9.39845 8.74845 9.31408 9.38283 9.0672 9.87033C8.79377 10.411 8.3297 10.7563 7.70002 10.8922C6.90939 11.0641 5.94533 10.7406 4.78908 9.93908C4.98595 10.1594 5.1922 10.3781 5.40783 10.5938C8.41877 13.6031 12.0344 14.8094 13.4219 13.4219C14.3781 12.4656 14.1031 10.4516 12.8547 8.30783L12.7875 8.37814C10.8438 6.50627 9.38127 5.69689 8.45939 5.89533C8.02189 5.99064 7.72502 6.20939 7.54533 6.56564C7.51095 6.63283 7.48127 6.7047 7.45627 6.78127C7.62189 6.70627 7.80627 6.66564 8.00002 6.66564C8.72502 6.6672 9.31564 7.24533 9.33283 7.9672ZM8.61095 9.18595C8.42814 9.2797 8.22033 9.33283 8.00002 9.33283C7.36564 9.33283 6.83439 8.88908 6.70002 8.29533H6.69689C6.69533 8.28752 6.69533 8.27814 6.69377 8.27033C6.67658 8.18283 6.66564 8.0922 6.66564 8.00002C6.66564 7.97502 6.66564 7.94845 6.6672 7.92345C6.63752 7.25314 6.72814 6.70158 6.94845 6.26564C7.22189 5.72502 7.68595 5.3797 8.31564 5.24377C9.16564 5.05939 10.2172 5.44689 11.4906 6.38752C11.211 6.05626 10.911 5.72814 10.5891 5.40627C7.58127 2.39689 3.96564 1.19064 2.57814 2.57814C1.60783 3.54845 1.90627 5.60939 3.20314 7.78908L3.23127 7.75939C5.17501 9.62814 6.63595 10.4391 7.55783 10.2406C7.99533 10.1453 8.2922 9.92658 8.47189 9.57033C8.5297 9.45627 8.57502 9.32814 8.61095 9.18595ZM13.8922 13.8922C12.1563 15.6281 8.17345 14.3016 4.93595 11.0641C1.69845 7.82658 0.370328 3.84377 2.10783 2.10783C3.84533 0.37189 7.82658 1.69845 11.0641 4.93595C14.3016 8.17345 15.6297 12.1563 13.8922 13.8922ZM8.00002 8.6672C8.36877 8.6672 8.6672 8.36877 8.6672 8.00002C8.6672 7.63127 8.36877 7.33283 8.00002 7.33283C7.63127 7.33283 7.33283 7.63127 7.33283 8.00002C7.33283 8.36877 7.63127 8.6672 8.00002 8.6672Z" fill="#FD9605"/>
</svg>
