<svg width="16" height="16" viewBox="0 0 16 16" fill="none" xmlns="http://www.w3.org/2000/svg">
<path d="M8.06832 5.87469L10.2023 3.74069C10.6353 3.30834 11.2221 3.06547 11.8339 3.06541C12.4458 3.06535 13.0326 3.3081 13.4656 3.74035C13.8982 4.17319 14.1411 4.76009 14.1409 5.37199C14.1408 5.98389 13.8977 6.57069 13.465 7.00335L10.265 10.203V10.2034L7.86465 12.6034C6.52132 13.9467 4.34465 13.9467 3.00132 12.6037C1.65765 11.2604 1.65798 9.08469 3.00365 7.73869L6.73665 4.00569C6.79737 3.94282 6.83097 3.85862 6.83021 3.77122C6.82945 3.68382 6.79439 3.60022 6.73259 3.53841C6.67079 3.47661 6.58718 3.44156 6.49978 3.4408C6.41238 3.44004 6.32818 3.47363 6.26532 3.53435L2.53232 7.26669C0.925982 8.87336 0.925649 11.4707 2.52998 13.075C4.13332 14.6784 6.73265 14.6784 8.33598 13.075L10.736 10.6744H10.7363L10.7366 10.674L13.9363 7.47435C15.0976 6.31302 15.098 4.42969 13.9366 3.26835C12.7766 2.10835 10.8916 2.10835 9.73098 3.26902L7.59698 5.40269L4.66532 8.33435C4.49383 8.50528 4.35773 8.70834 4.26482 8.93193C4.17191 9.15551 4.12401 9.39522 4.12385 9.63734C4.1237 9.87946 4.1713 10.1192 4.26392 10.3429C4.35655 10.5666 4.49238 10.7699 4.66365 10.941C5.00968 11.2862 5.47857 11.4799 5.96733 11.4796C6.45608 11.4793 6.92472 11.285 7.27032 10.9394L11.268 6.94202C11.3287 6.87915 11.3623 6.79495 11.3615 6.70755C11.3608 6.62016 11.3257 6.53655 11.2639 6.47475C11.2021 6.41295 11.1185 6.37789 11.0311 6.37713C10.9437 6.37637 10.8595 6.40997 10.7966 6.47069L6.79898 10.4684C6.57841 10.689 6.2793 10.8131 5.96733 10.8134C5.65535 10.8137 5.356 10.6902 5.13498 10.47C5.02562 10.3608 4.9389 10.231 4.87979 10.0881C4.82069 9.9453 4.79036 9.7922 4.79054 9.63761C4.79073 9.48302 4.82143 9.32998 4.88088 9.18728C4.94033 9.04458 5.02736 8.91502 5.13698 8.80602L8.06832 5.87469Z" fill="#3D3D3D"/>
</svg>
