<svg width="16" height="16" viewBox="0 0 16 16" fill="none" xmlns="http://www.w3.org/2000/svg">
<path d="M6.90345 4.80002L7.6791 3.17102C7.70346 3.11981 7.74185 3.07656 7.78979 3.04627C7.83774 3.01599 7.89329 2.99991 7.95 2.99991C8.00671 2.99991 8.06226 3.01599 8.11021 3.04627C8.15815 3.07656 8.19654 3.11981 8.2209 3.17102L8.9964 4.80002H15.15C15.3489 4.80002 15.5397 4.87904 15.6803 5.01969C15.821 5.16034 15.9 5.35111 15.9 5.55002V14.55C15.9 14.7489 15.821 14.9397 15.6803 15.0804C15.5397 15.221 15.3489 15.3 15.15 15.3H0.75C0.551088 15.3 0.360322 15.221 0.21967 15.0804C0.0790174 14.9397 0 14.7489 0 14.55V5.55002C0 5.35111 0.0790174 5.16034 0.21967 5.01969C0.360322 4.87904 0.551088 4.80002 0.75 4.80002H6.90345ZM4.5 11.7C5.41125 11.7 6.15 10.9613 6.15 10.05C6.15 9.13877 5.41125 8.40002 4.5 8.40002C3.58875 8.40002 2.85 9.13877 2.85 10.05C2.85 10.9613 3.58875 11.7 4.5 11.7ZM10.275 8.40002C10.1358 8.40002 10.0022 8.45533 9.90377 8.55379C9.80531 8.65224 9.75 8.78578 9.75 8.92502V11.175C9.75 11.3143 9.80531 11.4478 9.90377 11.5463C10.0022 11.6447 10.1358 11.7 10.275 11.7C10.4142 11.7 10.5478 11.6447 10.6462 11.5463C10.7447 11.4478 10.8 11.3143 10.8 11.175V8.92502C10.8 8.78578 10.7447 8.65224 10.6462 8.55379C10.5478 8.45533 10.4142 8.40002 10.275 8.40002ZM12.375 8.40002C12.2358 8.40002 12.1022 8.45533 12.0038 8.55379C11.9053 8.65224 11.85 8.78578 11.85 8.92502V11.175C11.85 11.3143 11.9053 11.4478 12.0038 11.5463C12.1022 11.6447 12.2358 11.7 12.375 11.7C12.5142 11.7 12.6478 11.6447 12.7462 11.5463C12.8447 11.4478 12.9 11.3143 12.9 11.175V8.92502C12.9 8.85608 12.8864 8.78781 12.86 8.72411C12.8337 8.66041 12.795 8.60254 12.7462 8.55379C12.6975 8.50504 12.6396 8.46637 12.5759 8.43998C12.5122 8.4136 12.4439 8.40002 12.375 8.40002ZM4.86555 2.30477C4.69215 2.39809 4.489 2.41947 4.29997 2.3643C4.11093 2.30912 3.95118 2.18181 3.85521 2.00986C3.75924 1.83791 3.73475 1.63511 3.78702 1.44525C3.83929 1.2554 3.96414 1.09372 4.1346 0.99512C6.5046 -0.32773 9.1086 -0.32773 11.8692 0.97142C11.9598 1.01244 12.0412 1.07105 12.1089 1.14385C12.1766 1.21664 12.2292 1.30217 12.2635 1.39546C12.2979 1.48875 12.3134 1.58794 12.309 1.68725C12.3047 1.78657 12.2807 1.88404 12.2383 1.97398C12.196 2.06393 12.1362 2.14456 12.0624 2.21119C11.9887 2.27782 11.9024 2.32912 11.8086 2.36211C11.7148 2.39509 11.6154 2.40911 11.5162 2.40333C11.4169 2.39756 11.3198 2.37211 11.2305 2.32847C8.89125 1.22762 6.79545 1.22762 4.86555 2.30477Z" fill="url(#paint0_linear_1000_3541)"/>
<defs>
<linearGradient id="paint0_linear_1000_3541" x1="15.9" y1="15.3" x2="0.61129" y2="-0.588223" gradientUnits="userSpaceOnUse">
<stop stop-color="#4171EE"/>
<stop offset="1" stop-color="#84A6FF"/>
</linearGradient>
</defs>
</svg>
