<svg width="16" height="16" viewBox="0 0 16 16" fill="currentColor" xmlns="http://www.w3.org/2000/svg">
<path d="M12.0625 12.4218C11.1562 13.2345 10.1275 13.7345 8.9765 13.9218C7.8255 14.1091 6.69783 13.9685 5.5935 13.4998C4.48917 12.9998 3.61683 12.2601 2.9765 11.2808C2.33617 10.3015 2.01067 9.20764 2 7.9993H3C3.01033 9.0513 3.29933 9.99397 3.867 10.8273C4.43467 11.6606 5.20817 12.27 6.1875 12.6553C7.16683 13.0303 8.14867 13.1033 9.133 12.8743C10.1173 12.6453 10.9688 12.1453 11.6875 11.3743H10.2345C10.0885 11.3743 9.96867 11.3275 9.875 11.2338C9.78133 11.1401 9.7345 11.023 9.7345 10.8823C9.7345 10.7416 9.78133 10.6245 9.875 10.5308C9.96867 10.4371 10.0885 10.385 10.2345 10.3743H12.5625C12.6978 10.3846 12.8125 10.4368 12.9065 10.5308C13.0005 10.6248 13.0527 10.7395 13.063 10.8748V13.2028C13.0527 13.3488 13.0005 13.4686 12.9065 13.5623C12.8125 13.656 12.6953 13.7028 12.555 13.7028C12.4147 13.7028 12.2975 13.656 12.2035 13.5623C12.1095 13.4686 12.0627 13.3488 12.063 13.2028V12.4213L12.0625 12.4218ZM4.3125 4.6248H5.7655C5.9115 4.6248 6.03133 4.67164 6.125 4.7653C6.21867 4.85897 6.2655 4.97614 6.2655 5.1168C6.2655 5.25747 6.21867 5.37464 6.125 5.4683C6.03133 5.56197 5.9115 5.61414 5.7655 5.6248H3.4375C3.30217 5.61447 3.1875 5.5623 3.0935 5.4683C2.9995 5.3743 2.94733 5.25964 2.937 5.1243V2.7963C2.94733 2.6503 2.9995 2.53047 3.0935 2.4368C3.1875 2.34314 3.30467 2.2963 3.445 2.2963C3.58533 2.2963 3.7025 2.34314 3.7965 2.4368C3.8905 2.53047 3.93733 2.6503 3.937 2.7963V3.5778C4.84333 2.76514 5.872 2.26514 7.023 2.0778C8.174 1.89047 9.30683 2.03114 10.4215 2.4998C11.5258 2.9998 12.3957 3.73947 13.031 4.7188C13.6663 5.69814 13.9893 6.79197 14 8.0003H13C12.9897 6.9483 12.7007 6.00564 12.133 5.1723C11.5653 4.33897 10.7918 3.72964 9.8125 3.3443C8.83317 2.9693 7.85133 2.8963 6.867 3.1253C5.88267 3.3543 5.03117 3.8543 4.3125 4.6253V4.6248Z" fill="currentColor"/>
<path d="M12.0625 12.4218C11.1562 13.2345 10.1275 13.7345 8.9765 13.9218C7.8255 14.1091 6.69783 13.9685 5.5935 13.4998C4.48917 12.9998 3.61683 12.2601 2.9765 11.2808C2.33617 10.3015 2.01067 9.20764 2 7.9993H3C3.01033 9.0513 3.29933 9.99397 3.867 10.8273C4.43467 11.6606 5.20817 12.27 6.1875 12.6553C7.16683 13.0303 8.14867 13.1033 9.133 12.8743C10.1173 12.6453 10.9688 12.1453 11.6875 11.3743H10.2345C10.0885 11.3743 9.96867 11.3275 9.875 11.2338C9.78133 11.1401 9.7345 11.023 9.7345 10.8823C9.7345 10.7416 9.78133 10.6245 9.875 10.5308C9.96867 10.4371 10.0885 10.385 10.2345 10.3743H12.5625C12.6978 10.3846 12.8125 10.4368 12.9065 10.5308C13.0005 10.6248 13.0527 10.7395 13.063 10.8748V13.2028C13.0527 13.3488 13.0005 13.4686 12.9065 13.5623C12.8125 13.656 12.6953 13.7028 12.555 13.7028C12.4147 13.7028 12.2975 13.656 12.2035 13.5623C12.1095 13.4686 12.0627 13.3488 12.063 13.2028V12.4213L12.0625 12.4218ZM4.3125 4.6248H5.7655C5.9115 4.6248 6.03133 4.67164 6.125 4.7653C6.21867 4.85897 6.2655 4.97614 6.2655 5.1168C6.2655 5.25747 6.21867 5.37464 6.125 5.4683C6.03133 5.56197 5.9115 5.61414 5.7655 5.6248H3.4375C3.30217 5.61447 3.1875 5.5623 3.0935 5.4683C2.9995 5.3743 2.94733 5.25964 2.937 5.1243V2.7963C2.94733 2.6503 2.9995 2.53047 3.0935 2.4368C3.1875 2.34314 3.30467 2.2963 3.445 2.2963C3.58533 2.2963 3.7025 2.34314 3.7965 2.4368C3.8905 2.53047 3.93733 2.6503 3.937 2.7963V3.5778C4.84333 2.76514 5.872 2.26514 7.023 2.0778C8.174 1.89047 9.30683 2.03114 10.4215 2.4998C11.5258 2.9998 12.3957 3.73947 13.031 4.7188C13.6663 5.69814 13.9893 6.79197 14 8.0003H13C12.9897 6.9483 12.7007 6.00564 12.133 5.1723C11.5653 4.33897 10.7918 3.72964 9.8125 3.3443C8.83317 2.9693 7.85133 2.8963 6.867 3.1253C5.88267 3.3543 5.03117 3.8543 4.3125 4.6253V4.6248Z" fill="currentColor" fill-opacity="0.5"/>
</svg>
