<svg width="32" height="32" viewBox="0 0 32 32" fill="none" xmlns="http://www.w3.org/2000/svg">
<rect width="32" height="32" rx="8" fill="url(#paint0_linear_993_1588)"/>
<path d="M20.4377 19.7347L22.3907 21.6877C22.4844 21.7921 22.5312 21.9092 22.5312 22.0392C22.5312 22.1692 22.4817 22.2839 22.3827 22.3832C22.2837 22.4826 22.1691 22.5321 22.0387 22.5317C21.9084 22.5314 21.7912 22.4846 21.6872 22.3912L19.7342 20.4382C18.3489 21.5736 16.8124 22.0917 15.1247 21.9927C13.4371 21.8937 11.9736 21.2036 10.7342 19.9222C9.54658 18.5786 8.96841 17.0629 8.99974 15.3752C9.03108 13.6876 9.66658 12.1979 10.9062 10.9062C12.1979 9.66658 13.6876 9.03108 15.3752 8.99974C17.0629 8.96841 18.5786 9.54658 19.9222 10.7342C21.2036 11.9739 21.8937 13.4374 21.9927 15.1247C22.0917 16.8121 21.5736 18.3486 20.4382 19.7342L20.4377 19.7347ZM15.5002 21.0002C17.0629 20.9586 18.3597 20.4221 19.3907 19.3907C20.4217 18.3594 20.9582 17.0626 21.0002 15.5002C20.9586 13.9376 20.4221 12.6407 19.3907 11.6097C18.3594 10.5787 17.0626 10.0422 15.5002 10.0002C13.9376 10.0419 12.6407 10.5784 11.6097 11.6097C10.5787 12.6411 10.0422 13.9379 10.0002 15.5002C10.0419 17.0629 10.5784 18.3597 11.6097 19.3907C12.6411 20.4217 13.9379 20.9582 15.5002 21.0002Z" fill="white"/>
<defs>
<linearGradient id="paint0_linear_993_1588" x1="32" y1="32" x2="0" y2="0" gradientUnits="userSpaceOnUse">
<stop stop-color="#4171EE"/>
<stop offset="1" stop-color="#84A6FF"/>
</linearGradient>
</defs>
</svg>
