<svg width="16" height="16" viewBox="0 0 16 16" fill="none" xmlns="http://www.w3.org/2000/svg">
<path d="M5.66496 9.35684L10.4536 5.35592L4.12259 8.17774L0.641477 5.51648C0.565013 5.45806 0.50696 5.37889 0.474237 5.2884C0.441515 5.19791 0.435504 5.09991 0.456922 5.0061C0.478339 4.91229 0.52628 4.82661 0.595031 4.75929C0.663783 4.69196 0.750443 4.64583 0.844684 4.62638L14.9528 1.71826C15.0354 1.7013 15.121 1.70543 15.2016 1.7303C15.2822 1.75516 15.3552 1.79995 15.4139 1.86051C15.4727 1.92108 15.5152 1.99547 15.5375 2.07681C15.5599 2.15815 15.5613 2.24381 15.5418 2.32588L12.7772 13.9062C12.7578 13.9875 12.7185 14.0627 12.6626 14.125C12.6068 14.1872 12.5363 14.2346 12.4575 14.2626C12.3787 14.2907 12.2942 14.2986 12.2116 14.2857C12.129 14.2728 12.0509 14.2394 11.9844 14.1887L5.66496 9.35684ZM4.35038 13.3558L5.04028 10.1265L7.74469 12.2143L5.10902 13.8841C5.02555 13.937 4.92832 13.964 4.82954 13.9619C4.73075 13.9597 4.6348 13.9284 4.55372 13.8719C4.47264 13.8155 4.41005 13.7363 4.37379 13.6444C4.33752 13.5525 4.32921 13.4519 4.34988 13.3553L4.35038 13.3558Z" fill="white"/>
</svg>
