<svg width="24" height="28" viewBox="0 0 24 28" fill="none" xmlns="http://www.w3.org/2000/svg">
<path d="M3.51253 3.51253C8.1959 -1.17084 15.7997 -1.17084 20.4831 3.51253C25.1665 8.1959 25.1665 15.7997 20.4831 20.4831L15.219 25.7471C13.4409 27.5252 10.5547 27.5252 8.77657 25.7471L3.51253 20.4831C-1.17084 15.7997 -1.17084 8.1959 3.51253 3.51253Z" fill="white"/>
<circle cx="12.0273" cy="11.9978" r="11" fill="#FF383C"/>
<path d="M16.8352 6C17.0663 6 17.257 6.17618 17.285 6.40352L17.2887 6.46154V10.1538C17.2887 10.2662 17.2484 10.3747 17.1754 10.459C17.1024 10.5433 17.0017 10.5976 16.8922 10.6117L16.8352 10.6154H12.451V12.1535H16.8352C17.0663 12.1535 17.257 12.3297 17.285 12.5575L17.2887 12.6156V14.6152H18.0443C18.2755 14.6152 18.4667 14.7914 18.4947 15.0193L18.4978 15.0773V17.5385C18.4978 17.6609 18.45 17.7783 18.365 17.8648C18.2799 17.9514 18.1646 18 18.0443 18H15.626C15.5057 18 15.3904 17.9514 15.3053 17.8648C15.2203 17.7783 15.1725 17.6609 15.1725 17.5385V15.0767C15.1725 14.822 15.3752 14.6152 15.626 14.6152H16.3817V13.0766L12.451 13.076V14.6152H13.2072C13.4384 14.6152 13.6291 14.7914 13.6571 15.0193L13.6607 15.0773V17.5385C13.6607 17.6609 13.6129 17.7783 13.5279 17.8648C13.4428 17.9514 13.3275 18 13.2072 18H10.7884C10.6681 18 10.5528 17.9514 10.4677 17.8648C10.3827 17.7783 10.3349 17.6609 10.3349 17.5385V15.0767C10.3349 14.822 10.5381 14.6152 10.7884 14.6152H11.544V13.076L7.61394 13.0766V14.6152H8.37011C8.60126 14.6152 8.79199 14.7914 8.81997 15.0193L8.8236 15.0773V17.5385C8.82358 17.6509 8.78323 17.7595 8.71013 17.8438C8.63703 17.9281 8.53621 17.9823 8.4266 17.9963L8.36959 18H5.9513C5.8409 18 5.7343 17.959 5.65148 17.8847C5.56866 17.8104 5.51531 17.7079 5.50143 17.5965L5.4978 17.5385V15.0767C5.4978 14.8415 5.67091 14.6474 5.89429 14.6189L5.9513 14.6152H6.70695V12.6156C6.70695 12.3803 6.88005 12.1857 7.10395 12.1572L7.16096 12.154L11.544 12.1535V10.6154H7.16044C7.05005 10.6154 6.94345 10.5744 6.86063 10.5001C6.77781 10.4258 6.72445 10.3233 6.71058 10.2119L6.70695 10.1538V6.46154C6.70695 6.22629 6.88005 6.03218 7.10395 6.00369L7.16096 6H16.8352ZM9.57925 7.84615H8.97442L8.91741 7.84985C8.80793 7.86402 8.70729 7.91835 8.63435 8.00263C8.56141 8.08691 8.52116 8.19538 8.52116 8.30769C8.52116 8.42001 8.56141 8.52847 8.63435 8.61276C8.70729 8.69704 8.80793 8.75136 8.91741 8.76554L8.97442 8.76923H9.57925L9.63626 8.76554C9.75063 8.75073 9.85516 8.69214 9.9286 8.60169C10.002 8.51124 10.0389 8.39572 10.0316 8.27862C10.0243 8.16152 9.97354 8.05163 9.88951 7.9713C9.80548 7.89096 9.69454 7.84622 9.57925 7.84615Z" fill="white"/>
</svg>
