<svg width="16" height="16" viewBox="0 0 16 16" fill="none" xmlns="http://www.w3.org/2000/svg">
<path d="M2.10758 13.892C0.371646 12.156 1.69821 8.17321 4.93571 4.93571C8.17321 1.69821 12.156 0.370083 13.892 2.10758C15.6279 3.84508 14.3013 7.82633 11.0638 11.0638C7.82633 14.3013 3.84352 15.6295 2.10758 13.892ZM2.5779 13.4216C3.9654 14.8091 7.58102 13.6045 10.592 10.5935C13.6029 7.58258 14.8091 3.9654 13.4216 2.5779C12.0341 1.1904 8.41852 2.39508 5.40758 5.40602C2.39665 8.41696 1.1904 12.0341 2.5779 13.4216ZM9.33258 7.96696C9.39821 8.74821 9.31383 9.38258 9.06696 9.87008C8.79352 10.4107 8.32946 10.756 7.69977 10.892C6.90915 11.0638 5.94508 10.7404 4.78883 9.93883C4.98571 10.1591 5.19196 10.3779 5.40758 10.5935C8.41852 13.6029 12.0341 14.8091 13.4216 13.4216C14.3779 12.4654 14.1029 10.4513 12.8545 8.30758L12.7873 8.3779C10.8435 6.50602 9.38102 5.69665 8.45915 5.89508C8.02165 5.9904 7.72477 6.20915 7.54508 6.5654C7.51071 6.63258 7.48102 6.70446 7.45602 6.78102C7.62165 6.70602 7.80602 6.6654 7.99977 6.6654C8.72477 6.66696 9.3154 7.24508 9.33258 7.96696ZM8.61071 9.18571C8.4279 9.27946 8.22008 9.33258 7.99977 9.33258C7.3654 9.33258 6.83415 8.88883 6.69977 8.29508H6.69665C6.69508 8.28727 6.69508 8.2779 6.69352 8.27008C6.67633 8.18258 6.6654 8.09196 6.6654 7.99977C6.6654 7.97477 6.6654 7.94821 6.66696 7.92321C6.63727 7.2529 6.7279 6.70133 6.94821 6.2654C7.22165 5.72477 7.68571 5.37946 8.3154 5.24352C9.1654 5.05915 10.217 5.44665 11.4904 6.38727C11.2107 6.05602 10.9107 5.7279 10.5888 5.40602C7.58102 2.39665 3.9654 1.1904 2.5779 2.5779C1.60758 3.54821 1.90602 5.60915 3.2029 7.78883L3.23102 7.75915C5.17477 9.6279 6.63571 10.4388 7.55758 10.2404C7.99508 10.1451 8.29196 9.92633 8.47165 9.57008C8.52946 9.45602 8.57477 9.3279 8.61071 9.18571ZM13.892 13.892C12.156 15.6279 8.17321 14.3013 4.93571 11.0638C1.69821 7.82633 0.370083 3.84352 2.10758 2.10758C3.84508 0.371646 7.82633 1.69821 11.0638 4.93571C14.3013 8.17321 15.6295 12.156 13.892 13.892ZM7.99977 8.66696C8.36852 8.66696 8.66696 8.36852 8.66696 7.99977C8.66696 7.63102 8.36852 7.33258 7.99977 7.33258C7.63102 7.33258 7.33258 7.63102 7.33258 7.99977C7.33258 8.36852 7.63102 8.66696 7.99977 8.66696Z" fill="#6D7D95"/>
<path d="M2.10758 13.892C0.371646 12.156 1.69821 8.17321 4.93571 4.93571C8.17321 1.69821 12.156 0.370083 13.892 2.10758C15.6279 3.84508 14.3013 7.82633 11.0638 11.0638C7.82633 14.3013 3.84352 15.6295 2.10758 13.892ZM2.5779 13.4216C3.9654 14.8091 7.58102 13.6045 10.592 10.5935C13.6029 7.58258 14.8091 3.9654 13.4216 2.5779C12.0341 1.1904 8.41852 2.39508 5.40758 5.40602C2.39665 8.41696 1.1904 12.0341 2.5779 13.4216ZM9.33258 7.96696C9.39821 8.74821 9.31383 9.38258 9.06696 9.87008C8.79352 10.4107 8.32946 10.756 7.69977 10.892C6.90915 11.0638 5.94508 10.7404 4.78883 9.93883C4.98571 10.1591 5.19196 10.3779 5.40758 10.5935C8.41852 13.6029 12.0341 14.8091 13.4216 13.4216C14.3779 12.4654 14.1029 10.4513 12.8545 8.30758L12.7873 8.3779C10.8435 6.50602 9.38102 5.69665 8.45915 5.89508C8.02165 5.9904 7.72477 6.20915 7.54508 6.5654C7.51071 6.63258 7.48102 6.70446 7.45602 6.78102C7.62165 6.70602 7.80602 6.6654 7.99977 6.6654C8.72477 6.66696 9.3154 7.24508 9.33258 7.96696ZM8.61071 9.18571C8.4279 9.27946 8.22008 9.33258 7.99977 9.33258C7.3654 9.33258 6.83415 8.88883 6.69977 8.29508H6.69665C6.69508 8.28727 6.69508 8.2779 6.69352 8.27008C6.67633 8.18258 6.6654 8.09196 6.6654 7.99977C6.6654 7.97477 6.6654 7.94821 6.66696 7.92321C6.63727 7.2529 6.7279 6.70133 6.94821 6.2654C7.22165 5.72477 7.68571 5.37946 8.3154 5.24352C9.1654 5.05915 10.217 5.44665 11.4904 6.38727C11.2107 6.05602 10.9107 5.7279 10.5888 5.40602C7.58102 2.39665 3.9654 1.1904 2.5779 2.5779C1.60758 3.54821 1.90602 5.60915 3.2029 7.78883L3.23102 7.75915C5.17477 9.6279 6.63571 10.4388 7.55758 10.2404C7.99508 10.1451 8.29196 9.92633 8.47165 9.57008C8.52946 9.45602 8.57477 9.3279 8.61071 9.18571ZM13.892 13.892C12.156 15.6279 8.17321 14.3013 4.93571 11.0638C1.69821 7.82633 0.370083 3.84352 2.10758 2.10758C3.84508 0.371646 7.82633 1.69821 11.0638 4.93571C14.3013 8.17321 15.6295 12.156 13.892 13.892ZM7.99977 8.66696C8.36852 8.66696 8.66696 8.36852 8.66696 7.99977C8.66696 7.63102 8.36852 7.33258 7.99977 7.33258C7.63102 7.33258 7.33258 7.63102 7.33258 7.99977C7.33258 8.36852 7.63102 8.66696 7.99977 8.66696Z" fill="black" fill-opacity="0.5"/>
</svg>
