<svg width="18" height="18" viewBox="0 0 18 18" fill="none" xmlns="http://www.w3.org/2000/svg">
<path d="M15.25 10.12C14.69 10.12 14.15 10.34 13.73 10.72L12.12 9.79C12.19 9.53 12.24 9.27 12.24 8.99C12.24 8.71 12.19 8.45 12.12 8.19L13.73 7.26C14.14 7.64 14.68 7.86 15.25 7.86C15.85 7.86 16.42 7.62 16.84 7.2C17.26 6.78 17.5 6.21 17.5 5.61C17.5 5.01 17.26 4.44 16.84 4.02C16.42 3.6 15.85 3.36 15.25 3.36C14.65 3.36 14.08 3.6 13.66 4.02C13.24 4.44 13 5.01 13 5.61C13 5.72 13.02 5.83 13.03 5.94L11.39 6.89C11.39 6.89 11.38 6.88 11.37 6.87C10.99 6.49 10.51 6.23 10 6.1V4.36C10.31 4.25 10.6 4.08 10.84 3.84C11.26 3.42 11.5 2.85 11.5 2.25C11.5 1.65 11.26 1.08 10.84 0.66C10.42 0.24 9.85 0 9.25 0C8.65 0 8.08 0.24 7.66 0.66C7.24 1.08 7 1.65 7 2.25C7 2.85 7.24 3.42 7.66 3.84C7.9 4.08 8.19 4.25 8.5 4.36V6.1C7.99 6.23 7.51 6.49 7.13 6.87C7.13 6.87 7.12 6.88 7.11 6.89L5.47 5.94C5.49 5.83 5.5 5.72 5.5 5.61C5.5 5.01 5.26 4.44 4.84 4.02C4.42 3.6 3.85 3.36 3.25 3.36C2.65 3.36 2.08 3.6 1.66 4.02C1.24 4.44 1 5.01 1 5.61C1 6.21 1.24 6.78 1.66 7.2C2.08 7.62 2.65 7.86 3.25 7.86C3.81 7.86 4.35 7.64 4.77 7.26L6.38 8.19C6.31 8.45 6.26 8.71 6.26 8.99C6.26 9.27 6.31 9.53 6.38 9.79L4.77 10.72C4.36 10.34 3.82 10.12 3.25 10.12C2.65 10.12 2.08 10.36 1.66 10.78C1.24 11.2 1 11.77 1 12.37C1 12.97 1.24 13.54 1.66 13.96C2.08 14.38 2.65 14.62 3.25 14.62C3.85 14.62 4.42 14.38 4.84 13.96C5.26 13.54 5.5 12.97 5.5 12.37C5.5 12.26 5.48 12.15 5.47 12.04L7.11 11.09C7.11 11.09 7.12 11.1 7.13 11.11C7.51 11.49 7.99 11.75 8.5 11.88V13.62C8.19 13.73 7.9 13.9 7.66 14.14C7.24 14.56 7 15.13 7 15.73C7 16.33 7.24 16.9 7.66 17.32C8.08 17.74 8.65 17.98 9.25 17.98C9.85 17.98 10.42 17.74 10.84 17.32C11.26 16.9 11.5 16.33 11.5 15.73C11.5 15.13 11.26 14.56 10.84 14.14C10.6 13.9 10.31 13.73 10 13.62V11.88C10.51 11.75 10.99 11.49 11.37 11.11C11.37 11.11 11.38 11.1 11.39 11.09L13.03 12.04C13.01 12.15 13 12.26 13 12.37C13 12.97 13.24 13.54 13.66 13.96C14.08 14.38 14.65 14.62 15.25 14.62C15.85 14.62 16.42 14.38 16.84 13.96C17.26 13.54 17.5 12.97 17.5 12.37C17.5 11.77 17.26 11.2 16.84 10.78C16.42 10.36 15.85 10.12 15.25 10.12Z" fill="#6D7D95"/>
<path d="M15.25 10.12C14.69 10.12 14.15 10.34 13.73 10.72L12.12 9.79C12.19 9.53 12.24 9.27 12.24 8.99C12.24 8.71 12.19 8.45 12.12 8.19L13.73 7.26C14.14 7.64 14.68 7.86 15.25 7.86C15.85 7.86 16.42 7.62 16.84 7.2C17.26 6.78 17.5 6.21 17.5 5.61C17.5 5.01 17.26 4.44 16.84 4.02C16.42 3.6 15.85 3.36 15.25 3.36C14.65 3.36 14.08 3.6 13.66 4.02C13.24 4.44 13 5.01 13 5.61C13 5.72 13.02 5.83 13.03 5.94L11.39 6.89C11.39 6.89 11.38 6.88 11.37 6.87C10.99 6.49 10.51 6.23 10 6.1V4.36C10.31 4.25 10.6 4.08 10.84 3.84C11.26 3.42 11.5 2.85 11.5 2.25C11.5 1.65 11.26 1.08 10.84 0.66C10.42 0.24 9.85 0 9.25 0C8.65 0 8.08 0.24 7.66 0.66C7.24 1.08 7 1.65 7 2.25C7 2.85 7.24 3.42 7.66 3.84C7.9 4.08 8.19 4.25 8.5 4.36V6.1C7.99 6.23 7.51 6.49 7.13 6.87C7.13 6.87 7.12 6.88 7.11 6.89L5.47 5.94C5.49 5.83 5.5 5.72 5.5 5.61C5.5 5.01 5.26 4.44 4.84 4.02C4.42 3.6 3.85 3.36 3.25 3.36C2.65 3.36 2.08 3.6 1.66 4.02C1.24 4.44 1 5.01 1 5.61C1 6.21 1.24 6.78 1.66 7.2C2.08 7.62 2.65 7.86 3.25 7.86C3.81 7.86 4.35 7.64 4.77 7.26L6.38 8.19C6.31 8.45 6.26 8.71 6.26 8.99C6.26 9.27 6.31 9.53 6.38 9.79L4.77 10.72C4.36 10.34 3.82 10.12 3.25 10.12C2.65 10.12 2.08 10.36 1.66 10.78C1.24 11.2 1 11.77 1 12.37C1 12.97 1.24 13.54 1.66 13.96C2.08 14.38 2.65 14.62 3.25 14.62C3.85 14.62 4.42 14.38 4.84 13.96C5.26 13.54 5.5 12.97 5.5 12.37C5.5 12.26 5.48 12.15 5.47 12.04L7.11 11.09C7.11 11.09 7.12 11.1 7.13 11.11C7.51 11.49 7.99 11.75 8.5 11.88V13.62C8.19 13.73 7.9 13.9 7.66 14.14C7.24 14.56 7 15.13 7 15.73C7 16.33 7.24 16.9 7.66 17.32C8.08 17.74 8.65 17.98 9.25 17.98C9.85 17.98 10.42 17.74 10.84 17.32C11.26 16.9 11.5 16.33 11.5 15.73C11.5 15.13 11.26 14.56 10.84 14.14C10.6 13.9 10.31 13.73 10 13.62V11.88C10.51 11.75 10.99 11.49 11.37 11.11C11.37 11.11 11.38 11.1 11.39 11.09L13.03 12.04C13.01 12.15 13 12.26 13 12.37C13 12.97 13.24 13.54 13.66 13.96C14.08 14.38 14.65 14.62 15.25 14.62C15.85 14.62 16.42 14.38 16.84 13.96C17.26 13.54 17.5 12.97 17.5 12.37C17.5 11.77 17.26 11.2 16.84 10.78C16.42 10.36 15.85 10.12 15.25 10.12Z" fill="black" fill-opacity="0.5"/>
</svg>
