<svg width="24" height="28" viewBox="0 0 24 28" fill="none" xmlns="http://www.w3.org/2000/svg">
<path d="M3.51253 3.51253C8.1959 -1.17084 15.7997 -1.17084 20.4831 3.51253C25.1665 8.1959 25.1665 15.7997 20.4831 20.4831L15.219 25.7471C13.4409 27.5252 10.5547 27.5252 8.77657 25.7471L3.51253 20.4831C-1.17084 15.7997 -1.17084 8.1959 3.51253 3.51253Z" fill="white"/>
<circle cx="12.0273" cy="11.9978" r="11" fill="url(#paint0_linear_1146_4062)"/>
<g clip-path="url(#clip0_1146_4062)">
<path d="M12.0273 4.9978C8.64492 4.9978 5.90234 7.74038 5.90234 11.1228C5.90234 14.5052 8.64492 17.2478 12.0273 17.2478C15.4098 17.2478 18.1523 14.5052 18.1523 11.1228C18.1523 7.74038 15.4098 4.9978 12.0273 4.9978ZM12.0273 6.52905C12.3896 6.52905 12.6836 6.823 12.6836 7.1853C12.6836 7.54761 12.3896 7.84155 12.0273 7.84155C11.665 7.84155 11.3711 7.54761 11.3711 7.1853C11.3711 6.823 11.665 6.52905 12.0273 6.52905ZM12.0273 14.1853C10.3361 14.1853 8.96484 12.814 8.96484 11.1228C8.96484 9.43159 10.3361 8.0603 12.0273 8.0603C13.7186 8.0603 15.0898 9.43159 15.0898 11.1228C15.0898 12.814 13.7186 14.1853 12.0273 14.1853Z" fill="white"/>
<path d="M14.215 11.1228C14.215 11.7066 13.988 12.2562 13.5738 12.6691C13.1609 13.0833 12.6113 13.3103 12.0275 13.3103C11.4437 13.3103 10.8941 13.0833 10.4812 12.6691C10.0669 12.2562 9.83999 11.7066 9.83999 11.1228C9.83999 10.539 10.0669 9.9894 10.4812 9.57651C10.8941 9.16226 11.4437 8.9353 12.0275 8.9353C12.6113 8.9353 13.1609 9.16226 13.5738 9.57651C13.988 9.9894 14.215 10.539 14.215 11.1228ZM16.2207 17.0687C16.4804 17.2464 16.4722 17.632 16.2056 17.8001C14.9943 18.5589 13.5628 18.9978 12.0275 18.9978C10.4921 18.9978 9.06069 18.5589 7.84937 17.7988C7.58277 17.632 7.57456 17.2464 7.83433 17.0673C7.97788 16.9689 8.16655 16.9648 8.31558 17.0578C8.63003 17.2546 8.95952 17.4269 9.30405 17.5718C10.1654 17.9382 11.0814 18.1228 12.0275 18.1228C12.9736 18.1228 13.8896 17.9382 14.7523 17.5732C15.0968 17.4269 15.4263 17.256 15.7408 17.0591C15.8884 16.9662 16.0771 16.9689 16.2207 17.0687Z" fill="white"/>
</g>
<defs>
<linearGradient id="paint0_linear_1146_4062" x1="23.0273" y1="22.9978" x2="1.02734" y2="0.997803" gradientUnits="userSpaceOnUse">
<stop stop-color="#4171EE"/>
<stop offset="1" stop-color="#84A6FF"/>
</linearGradient>
<clipPath id="clip0_1146_4062">
<rect width="14" height="14" fill="white" transform="translate(5.02734 4.9978)"/>
</clipPath>
</defs>
</svg>
