<svg width="13" height="13" viewBox="0 0 13 13" fill="none" xmlns="http://www.w3.org/2000/svg">
<path d="M11.7188 1C11.8566 1 11.9688 1.11219 11.9688 1.25V11.7188C11.9688 11.8566 11.8566 11.9688 11.7188 11.9688H1.25C1.11219 11.9688 1 11.8566 1 11.7188V1.25C1 1.11219 1.11219 1 1.25 1H11.7188ZM11.7188 0H1.25C0.559687 0 0 0.559687 0 1.25V11.7188C0 12.4091 0.559687 12.9688 1.25 12.9688H11.7188C12.4091 12.9688 12.9688 12.4091 12.9688 11.7188V1.25C12.9688 0.559687 12.4091 0 11.7188 0Z" fill="#6D7D95"/>
<path d="M11.7188 1C11.8566 1 11.9688 1.11219 11.9688 1.25V11.7188C11.9688 11.8566 11.8566 11.9688 11.7188 11.9688H1.25C1.11219 11.9688 1 11.8566 1 11.7188V1.25C1 1.11219 1.11219 1 1.25 1H11.7188ZM11.7188 0H1.25C0.559687 0 0 0.559687 0 1.25V11.7188C0 12.4091 0.559687 12.9688 1.25 12.9688H11.7188C12.4091 12.9688 12.9688 12.4091 12.9688 11.7188V1.25C12.9688 0.559687 12.4091 0 11.7188 0Z" fill="black" fill-opacity="0.5"/>
</svg>
