<svg width="16" height="16" viewBox="0 0 16 16" fill="currentColor" xmlns="http://www.w3.org/2000/svg">
<path d="M13.25 2.53125C13.3878 2.53125 13.5 2.64344 13.5 2.78125V13.25C13.5 13.3878 13.3878 13.5 13.25 13.5H2.78125C2.64344 13.5 2.53125 13.3878 2.53125 13.25V2.78125C2.53125 2.64344 2.64344 2.53125 2.78125 2.53125H13.25ZM13.25 1.53125H2.78125C2.09094 1.53125 1.53125 2.09094 1.53125 2.78125V13.25C1.53125 13.9403 2.09094 14.5 2.78125 14.5H13.25C13.9403 14.5 14.5 13.9403 14.5 13.25V2.78125C14.5 2.09094 13.9403 1.53125 13.25 1.53125Z" fill="currentColor"/>
<path d="M13.25 2.53125C13.3878 2.53125 13.5 2.64344 13.5 2.78125V13.25C13.5 13.3878 13.3878 13.5 13.25 13.5H2.78125C2.64344 13.5 2.53125 13.3878 2.53125 13.25V2.78125C2.53125 2.64344 2.64344 2.53125 2.78125 2.53125H13.25ZM13.25 1.53125H2.78125C2.09094 1.53125 1.53125 2.09094 1.53125 2.78125V13.25C1.53125 13.9403 2.09094 14.5 2.78125 14.5H13.25C13.9403 14.5 14.5 13.9403 14.5 13.25V2.78125C14.5 2.09094 13.9403 1.53125 13.25 1.53125Z" fill="currentColor" fill-opacity="0.5"/>
<path d="M13.9375 5.51025H1.76562V6.51025H13.9375V5.51025Z" fill="currentColor"/>
<path d="M13.9375 5.51025H1.76562V6.51025H13.9375V5.51025Z" fill="currentColor" fill-opacity="0.5"/>
<path d="M6.52612 5.84375H5.52612V14.5H6.52612V5.84375ZM10.5208 5.84375H9.52081V14.5H10.5208V5.84375Z" fill="currentColor"/>
<path d="M6.52612 5.84375H5.52612V14.5H6.52612V5.84375ZM10.5208 5.84375H9.52081V14.5H10.5208V5.84375Z" fill="currentColor" fill-opacity="0.5"/>
<path d="M14.1406 9.48975H1.96875V10.4897H14.1406V9.48975Z" fill="currentColor"/>
<path d="M14.1406 9.48975H1.96875V10.4897H14.1406V9.48975Z" fill="currentColor" fill-opacity="0.5"/>
</svg>
