<svg width="18" height="18" viewBox="0 0 18 18" fill="none" xmlns="http://www.w3.org/2000/svg">
<path d="M16.8911 6.88931L15.8175 6.73916C15.5792 6.70538 15.3858 6.54397 15.292 6.32438C15.0799 5.82327 14.8097 5.35407 14.4868 4.92615C14.3423 4.73471 14.2992 4.4851 14.3893 4.26363L14.7965 3.25953C14.9223 2.95173 14.8003 2.59701 14.5112 2.43185L12.1896 1.08992C11.9006 0.922887 11.5346 0.994206 11.33 1.25696L10.6656 2.10716C10.5174 2.2986 10.2771 2.38681 10.0369 2.35678C9.77415 2.323 9.50576 2.30423 9.23362 2.30423C8.96148 2.30423 8.6931 2.323 8.43034 2.35678C8.19011 2.38681 7.94987 2.2986 7.80161 2.10716L7.13721 1.25696C6.93264 0.994206 6.56666 0.922887 6.27763 1.08992L3.956 2.42998C3.66697 2.59701 3.54685 2.94986 3.67072 3.25765L4.07799 4.26175C4.16808 4.4851 4.12491 4.73284 3.98039 4.92427C3.65758 5.35219 3.38544 5.82139 3.17524 6.32251C3.0814 6.54397 2.88808 6.70538 2.64973 6.73728L1.57618 6.88743C1.24586 6.93435 1 7.21587 1 7.54995V10.2319C1 10.5641 1.24586 10.8456 1.57431 10.8926L2.64785 11.0427C2.88621 11.0765 3.07952 11.2379 3.17336 11.4575C3.38544 11.9586 3.6557 12.4278 3.97852 12.8557C4.12303 13.0472 4.1662 13.2968 4.07611 13.5182L3.66884 14.5223C3.5431 14.8301 3.66509 15.1849 3.95412 15.35L6.27575 16.6901C6.56478 16.8571 6.93076 16.7858 7.13533 16.523L7.79973 15.6728C7.948 15.4814 8.18823 15.3932 8.42847 15.4232C8.69122 15.457 8.95961 15.4758 9.23174 15.4758C9.50388 15.4758 9.77227 15.457 10.035 15.4232C10.2753 15.3932 10.5155 15.4814 10.6638 15.6728L11.3282 16.523C11.5327 16.7858 11.8987 16.8571 12.1877 16.6901L14.5094 15.35C14.7984 15.183 14.9185 14.8301 14.7946 14.5223L14.3874 13.5182C14.2973 13.2968 14.3405 13.0472 14.485 12.8557C14.8078 12.4278 15.0799 11.9586 15.2901 11.4575C15.384 11.236 15.5773 11.0746 15.8156 11.0427L16.8892 10.8926C17.2195 10.8456 17.4635 10.5641 17.4635 10.2319V7.54995C17.4672 7.21587 17.2214 6.93435 16.8911 6.88931ZM9.23362 11.4969C7.7941 11.4969 6.62672 10.3295 6.62672 8.89C6.62672 7.45048 7.7941 6.28309 9.23362 6.28309C10.6731 6.28309 11.8405 7.45048 11.8405 8.89C11.8405 10.3295 10.6731 11.4969 9.23362 11.4969Z" fill="#6D7D95"/>
<path d="M16.8911 6.88931L15.8175 6.73916C15.5792 6.70538 15.3858 6.54397 15.292 6.32438C15.0799 5.82327 14.8097 5.35407 14.4868 4.92615C14.3423 4.73471 14.2992 4.4851 14.3893 4.26363L14.7965 3.25953C14.9223 2.95173 14.8003 2.59701 14.5112 2.43185L12.1896 1.08992C11.9006 0.922887 11.5346 0.994206 11.33 1.25696L10.6656 2.10716C10.5174 2.2986 10.2771 2.38681 10.0369 2.35678C9.77415 2.323 9.50576 2.30423 9.23362 2.30423C8.96148 2.30423 8.6931 2.323 8.43034 2.35678C8.19011 2.38681 7.94987 2.2986 7.80161 2.10716L7.13721 1.25696C6.93264 0.994206 6.56666 0.922887 6.27763 1.08992L3.956 2.42998C3.66697 2.59701 3.54685 2.94986 3.67072 3.25765L4.07799 4.26175C4.16808 4.4851 4.12491 4.73284 3.98039 4.92427C3.65758 5.35219 3.38544 5.82139 3.17524 6.32251C3.0814 6.54397 2.88808 6.70538 2.64973 6.73728L1.57618 6.88743C1.24586 6.93435 1 7.21587 1 7.54995V10.2319C1 10.5641 1.24586 10.8456 1.57431 10.8926L2.64785 11.0427C2.88621 11.0765 3.07952 11.2379 3.17336 11.4575C3.38544 11.9586 3.6557 12.4278 3.97852 12.8557C4.12303 13.0472 4.1662 13.2968 4.07611 13.5182L3.66884 14.5223C3.5431 14.8301 3.66509 15.1849 3.95412 15.35L6.27575 16.6901C6.56478 16.8571 6.93076 16.7858 7.13533 16.523L7.79973 15.6728C7.948 15.4814 8.18823 15.3932 8.42847 15.4232C8.69122 15.457 8.95961 15.4758 9.23174 15.4758C9.50388 15.4758 9.77227 15.457 10.035 15.4232C10.2753 15.3932 10.5155 15.4814 10.6638 15.6728L11.3282 16.523C11.5327 16.7858 11.8987 16.8571 12.1877 16.6901L14.5094 15.35C14.7984 15.183 14.9185 14.8301 14.7946 14.5223L14.3874 13.5182C14.2973 13.2968 14.3405 13.0472 14.485 12.8557C14.8078 12.4278 15.0799 11.9586 15.2901 11.4575C15.384 11.236 15.5773 11.0746 15.8156 11.0427L16.8892 10.8926C17.2195 10.8456 17.4635 10.5641 17.4635 10.2319V7.54995C17.4672 7.21587 17.2214 6.93435 16.8911 6.88931ZM9.23362 11.4969C7.7941 11.4969 6.62672 10.3295 6.62672 8.89C6.62672 7.45048 7.7941 6.28309 9.23362 6.28309C10.6731 6.28309 11.8405 7.45048 11.8405 8.89C11.8405 10.3295 10.6731 11.4969 9.23362 11.4969Z" fill="black" fill-opacity="0.5"/>
</svg>
