<svg width="17" height="11" viewBox="0 0 17 11" fill="none" xmlns="http://www.w3.org/2000/svg">
<path d="M15 10.667C14.7348 10.667 14.4804 10.5616 14.2929 10.3741C14.1054 10.1866 14 9.93222 14 9.667V1C14 0.734784 14.1054 0.48043 14.2929 0.292893C14.4804 0.105357 14.7348 0 15 0L16 0C16.2652 0 16.5196 0.105357 16.7071 0.292893C16.8946 0.48043 17 0.734784 17 1V9.667C17 9.93222 16.8946 10.1866 16.7071 10.3741C16.5196 10.5616 16.2652 10.667 16 10.667H15ZM10.333 10.667C10.0678 10.667 9.81343 10.5616 9.62589 10.3741C9.43836 10.1866 9.333 9.93222 9.333 9.667V3.334C9.333 3.06878 9.43836 2.81443 9.62589 2.62689C9.81343 2.43936 10.0678 2.334 10.333 2.334H11.333C11.5982 2.334 11.8526 2.43936 12.0401 2.62689C12.2276 2.81443 12.333 3.06878 12.333 3.334V9.667C12.333 9.93222 12.2276 10.1866 12.0401 10.3741C11.8526 10.5616 11.5982 10.667 11.333 10.667H10.333ZM5.666 10.667C5.40078 10.667 5.14643 10.5616 4.95889 10.3741C4.77136 10.1866 4.666 9.93222 4.666 9.667V5.667C4.666 5.40178 4.77136 5.14743 4.95889 4.95989C5.14643 4.77236 5.40078 4.667 5.666 4.667H6.666C6.93122 4.667 7.18557 4.77236 7.37311 4.95989C7.56064 5.14743 7.666 5.40178 7.666 5.667V9.667C7.666 9.93222 7.56064 10.1866 7.37311 10.3741C7.18557 10.5616 6.93122 10.667 6.666 10.667H5.666ZM1 10.667C0.734784 10.667 0.48043 10.5616 0.292893 10.3741C0.105357 10.1866 0 9.93222 0 9.667V7.667C0 7.40178 0.105357 7.14743 0.292893 6.95989C0.48043 6.77236 0.734784 6.667 1 6.667H2C2.26522 6.667 2.51957 6.77236 2.70711 6.95989C2.89464 7.14743 3 7.40178 3 7.667V9.667C3 9.93222 2.89464 10.1866 2.70711 10.3741C2.51957 10.5616 2.26522 10.667 2 10.667H1Z" fill="#31CF70"/>
</svg>
